<?xml version="1.0" encoding="UTF-8"?>
<!DOCTYPE svg PUBLIC "-//W3C//DTD SVG 1.1//EN" "http://www.w3.org/Graphics/SVG/1.1/DTD/svg11.dtd">
<svg xmlns="http://www.w3.org/2000/svg" version="1.1" width="512px" height="512px" style="shape-rendering:geometricPrecision; text-rendering:geometricPrecision; image-rendering:optimizeQuality; fill-rule:evenodd; clip-rule:evenodd" xmlns:xlink="http://www.w3.org/1999/xlink">
<g><path style="opacity:1" fill="#0e52b0" d="M -0.5,-0.5 C 170.167,-0.5 340.833,-0.5 511.5,-0.5C 511.5,1.5 511.5,3.5 511.5,5.5C 340.833,5.5 170.167,5.5 -0.5,5.5C -0.5,3.5 -0.5,1.5 -0.5,-0.5 Z"/></g>
<g><path style="opacity:1" fill="#0e55b0" d="M -0.5,5.5 C 170.167,5.5 340.833,5.5 511.5,5.5C 511.5,14.8333 511.5,24.1667 511.5,33.5C 340.833,33.5 170.167,33.5 -0.5,33.5C -0.5,24.1667 -0.5,14.8333 -0.5,5.5 Z"/></g>
<g><path style="opacity:1" fill="#105ab3" d="M -0.5,33.5 C 170.167,33.5 340.833,33.5 511.5,33.5C 511.5,44.8333 511.5,56.1667 511.5,67.5C 340.833,67.5 170.167,67.5 -0.5,67.5C -0.5,56.1667 -0.5,44.8333 -0.5,33.5 Z"/></g>
<g><path style="opacity:1" fill="#1360b8" d="M -0.5,67.5 C 170.167,67.5 340.833,67.5 511.5,67.5C 511.5,83.1667 511.5,98.8333 511.5,114.5C 340.833,114.5 170.167,114.5 -0.5,114.5C -0.5,98.8333 -0.5,83.1667 -0.5,67.5 Z"/></g>
<g><path style="opacity:1" fill="#1666bd" d="M -0.5,114.5 C 170.167,114.5 340.833,114.5 511.5,114.5C 511.5,126.167 511.5,137.833 511.5,149.5C 479.498,149.667 447.498,149.5 415.5,149C 415,148.5 414.5,148 414,147.5C 413.616,149.197 413.782,150.863 414.5,152.5C 383.621,121.627 347.621,113.794 306.5,129C 296.182,134.162 286.849,140.662 278.5,148.5C 278.769,146.571 278.269,144.905 277,143.5C 275.07,145.219 273.236,147.053 271.5,149C 180.834,149.5 90.1673,149.667 -0.5,149.5C -0.5,137.833 -0.5,126.167 -0.5,114.5 Z"/></g>
<g><path style="opacity:1" fill="#f6ca45" d="M 414.5,152.5 C 418.144,157.663 421.644,162.996 425,168.5C 427.072,171.971 428.572,175.638 429.5,179.5C 428.25,179.423 427.417,178.756 427,177.5C 426.667,177.833 426.333,178.167 426,178.5C 426.019,176.893 426.185,175.226 426.5,173.5C 424.278,172.614 422.112,172.614 420,173.5C 418.527,173.097 417.194,172.43 416,171.5C 411.924,172.449 407.757,173.115 403.5,173.5C 401.392,173.14 399.392,172.473 397.5,171.5C 394.197,172.515 390.864,172.515 387.5,171.5C 380.847,172.166 374.181,172.666 367.5,173C 366.234,173.309 365.067,173.809 364,174.5C 360.384,173.762 356.718,173.096 353,172.5C 336.306,172.315 319.639,172.649 303,173.5C 300.037,172.04 296.87,171.374 293.5,171.5C 288.863,172.494 284.197,173.161 279.5,173.5C 279.649,172.448 279.483,171.448 279,170.5C 275.995,174.595 273.329,174.261 271,169.5C 270.667,171.5 270.333,173.5 270,175.5C 269.111,174.112 268.611,174.278 268.5,176C 271.432,177.476 271.766,179.143 269.5,181C 270.056,181.383 270.389,181.883 270.5,182.5C 270.167,182.5 269.833,182.5 269.5,182.5C 267.142,180.322 264.475,178.655 261.5,177.5C 261.167,176.833 260.833,176.167 260.5,175.5C 264.931,165.412 270.931,156.412 278.5,148.5C 286.849,140.662 296.182,134.162 306.5,129C 347.621,113.794 383.621,121.627 414.5,152.5 Z"/></g>
<g><path style="opacity:1" fill="#1a6cc2" d="M 278.5,148.5 C 270.931,156.412 264.931,165.412 260.5,175.5C 257.167,174.167 253.833,172.833 250.5,171.5C 208.745,155.25 173.078,163.917 143.5,197.5C 141.99,196.272 140.49,196.272 139,197.5C 138,196.833 137,196.167 136,195.5C 90.5721,196.497 45.0721,196.83 -0.5,196.5C -0.5,180.833 -0.5,165.167 -0.5,149.5C 90.1673,149.667 180.834,149.5 271.5,149C 273.236,147.053 275.07,145.219 277,143.5C 278.269,144.905 278.769,146.571 278.5,148.5 Z"/></g>
<g><path style="opacity:1" fill="#1a6cc2" d="M 511.5,149.5 C 511.5,165.167 511.5,180.833 511.5,196.5C 487.164,196.333 462.831,196.5 438.5,197C 437.473,197.513 436.473,198.013 435.5,198.5C 434.568,191.755 432.568,185.422 429.5,179.5C 428.572,175.638 427.072,171.971 425,168.5C 421.644,162.996 418.144,157.663 414.5,152.5C 413.782,150.863 413.616,149.197 414,147.5C 414.5,148 415,148.5 415.5,149C 447.498,149.5 479.498,149.667 511.5,149.5 Z"/></g>
<g><path style="opacity:1" fill="#f8d147" d="M 429.5,179.5 C 432.568,185.422 434.568,191.755 435.5,198.5C 435.5,199.833 435.5,201.167 435.5,202.5C 434.778,202.918 434.278,203.584 434,204.5C 433.667,203.5 433.333,202.5 433,201.5C 384.591,202.562 336.425,202.562 288.5,201.5C 283.527,194.527 277.527,188.527 270.5,183.5C 270.5,183.167 270.5,182.833 270.5,182.5C 270.389,181.883 270.056,181.383 269.5,181C 271.766,179.143 271.432,177.476 268.5,176C 268.611,174.278 269.111,174.112 270,175.5C 270.333,173.5 270.667,171.5 271,169.5C 273.329,174.261 275.995,174.595 279,170.5C 279.483,171.448 279.649,172.448 279.5,173.5C 284.197,173.161 288.863,172.494 293.5,171.5C 296.87,171.374 300.037,172.04 303,173.5C 319.639,172.649 336.306,172.315 353,172.5C 356.718,173.096 360.384,173.762 364,174.5C 365.067,173.809 366.234,173.309 367.5,173C 374.181,172.666 380.847,172.166 387.5,171.5C 390.864,172.515 394.197,172.515 397.5,171.5C 399.392,172.473 401.392,173.14 403.5,173.5C 407.757,173.115 411.924,172.449 416,171.5C 417.194,172.43 418.527,173.097 420,173.5C 422.112,172.614 424.278,172.614 426.5,173.5C 426.185,175.226 426.019,176.893 426,178.5C 426.333,178.167 426.667,177.833 427,177.5C 427.417,178.756 428.25,179.423 429.5,179.5 Z"/></g>
<g><path style="opacity:1" fill="#f1f4fb" d="M 250.5,171.5 C 248.789,177.71 246.122,183.877 242.5,190C 244.117,193.249 243.451,195.916 240.5,198C 241.337,199.011 241.67,200.178 241.5,201.5C 241.982,205.234 240.649,208.067 237.5,210C 239.037,211.11 239.703,212.61 239.5,214.5C 237.876,214.64 236.71,213.973 236,212.5C 234.612,213.554 233.112,213.72 231.5,213C 232.167,212.333 232.833,211.667 233.5,211C 232.54,209.581 231.707,208.081 231,206.5C 229.455,207.821 228.289,207.488 227.5,205.5C 229.084,202.873 230.751,202.873 232.5,205.5C 235.326,202.468 234.659,200.468 230.5,199.5C 229.034,200.135 227.7,200.969 226.5,202C 198.55,201.59 170.716,201.424 143,201.5C 142,202.5 141,203.5 140,204.5C 139.601,204.272 139.435,203.938 139.5,203.5C 140.441,201.228 141.774,199.228 143.5,197.5C 173.078,163.917 208.745,155.25 250.5,171.5 Z"/></g>
<g><path style="opacity:1" fill="#f8d74a" d="M 435.5,202.5 C 436.342,207.787 436.676,213.12 436.5,218.5C 435.596,226.231 433.929,233.898 431.5,241.5C 428.338,238.694 424.672,236.694 420.5,235.5C 418.249,236.865 416.249,236.531 414.5,234.5C 413.5,234.833 412.833,235.5 412.5,236.5C 413.5,237.333 414.5,238.167 415.5,239C 412.167,239.667 408.833,239.667 405.5,239C 406.995,235.159 405.661,233.826 401.5,235C 399.869,236.836 399.202,236.336 399.5,233.5C 397.278,233.178 395.444,233.845 394,235.5C 391.539,234.782 389.039,234.115 386.5,233.5C 382.906,234.426 379.24,234.759 375.5,234.5C 375.649,235.552 375.483,236.552 375,237.5C 374.255,236.01 373.088,235.01 371.5,234.5C 369.506,235.827 367.839,237.494 366.5,239.5C 346.775,225.069 324.775,219.736 300.5,223.5C 297.01,215.851 293.01,208.518 288.5,201.5C 336.425,202.562 384.591,202.562 433,201.5C 433.333,202.5 433.667,203.5 434,204.5C 434.278,203.584 434.778,202.918 435.5,202.5 Z"/></g>
<g><path style="opacity:1" fill="#1d72c7" d="M 143.5,197.5 C 141.774,199.228 140.441,201.228 139.5,203.5C 134.82,209.521 131.153,216.188 128.5,223.5C 85.7188,221.514 42.7188,220.847 -0.5,221.5C -0.5,213.167 -0.5,204.833 -0.5,196.5C 45.0721,196.83 90.5721,196.497 136,195.5C 137,196.167 138,196.833 139,197.5C 140.49,196.272 141.99,196.272 143.5,197.5 Z"/></g>
<g><path style="opacity:1" fill="#1d72c7" d="M 511.5,196.5 C 511.5,204.833 511.5,213.167 511.5,221.5C 487.259,221.172 463.092,221.506 439,222.5C 438.086,218.815 437.419,219.148 437,223.5C 436.506,221.866 436.34,220.199 436.5,218.5C 436.676,213.12 436.342,207.787 435.5,202.5C 435.5,201.167 435.5,199.833 435.5,198.5C 436.473,198.013 437.473,197.513 438.5,197C 462.831,196.5 487.164,196.333 511.5,196.5 Z"/></g>
<g><path style="opacity:1" fill="#e4ecf8" d="M 239.5,214.5 C 238.599,218.241 239.932,220.241 243.5,220.5C 243.779,223.118 244.446,225.618 245.5,228C 242.847,231.782 243.347,235.282 247,238.5C 247.146,243.01 247.979,247.343 249.5,251.5C 246.549,248.727 243.382,246.061 240,243.5C 239.544,242.256 240.044,241.423 241.5,241C 240.906,239.329 239.573,237.662 237.5,236C 237.892,234.989 238.559,234.489 239.5,234.5C 238.396,232.611 237.063,230.945 235.5,229.5C 211.7,229.859 187.867,230.192 164,230.5C 154.243,230.328 144.576,229.661 135,228.5C 133.221,231.276 132.221,230.943 132,227.5C 130.345,227.802 129.012,229.136 128,231.5C 127.517,230.552 127.351,229.552 127.5,228.5C 127.629,226.784 127.962,225.117 128.5,223.5C 131.153,216.188 134.82,209.521 139.5,203.5C 139.435,203.938 139.601,204.272 140,204.5C 141,203.5 142,202.5 143,201.5C 170.716,201.424 198.55,201.59 226.5,202C 227.7,200.969 229.034,200.135 230.5,199.5C 234.659,200.468 235.326,202.468 232.5,205.5C 230.751,202.873 229.084,202.873 227.5,205.5C 228.289,207.488 229.455,207.821 231,206.5C 231.707,208.081 232.54,209.581 233.5,211C 232.833,211.667 232.167,212.333 231.5,213C 233.112,213.72 234.612,213.554 236,212.5C 236.71,213.973 237.876,214.64 239.5,214.5 Z"/></g>
<g><path style="opacity:1" fill="#1e77ca" d="M -0.5,221.5 C 42.7188,220.847 85.7188,221.514 128.5,223.5C 127.962,225.117 127.629,226.784 127.5,228.5C 125.126,233.797 124.126,239.463 124.5,245.5C 123.532,247.607 123.198,249.941 123.5,252.5C 120.673,252.584 118.006,253.25 115.5,254.5C 115.062,254.565 114.728,254.399 114.5,254C 116.595,253.444 116.762,252.944 115,252.5C 76.6064,252.523 38.1064,252.523 -0.5,252.5C -0.5,242.167 -0.5,231.833 -0.5,221.5 Z"/></g>
<g><path style="opacity:1" fill="#1f77ca" d="M 436.5,218.5 C 436.34,220.199 436.506,221.866 437,223.5C 437.419,219.148 438.086,218.815 439,222.5C 463.092,221.506 487.259,221.172 511.5,221.5C 511.5,231.833 511.5,242.167 511.5,252.5C 484.825,252.833 458.158,252.5 431.5,251.5C 430.388,250.735 429.721,249.735 429.5,248.5C 429.878,246.079 430.545,243.746 431.5,241.5C 433.929,233.898 435.596,226.231 436.5,218.5 Z"/></g>
<g><path style="opacity:1" fill="#eceee3" d="M 250.5,171.5 C 253.833,172.833 257.167,174.167 260.5,175.5C 260.833,176.167 261.167,176.833 261.5,177.5C 254.699,195.591 252.866,214.591 256,234.5C 257.106,238.208 258.273,241.875 259.5,245.5C 260.077,251.817 263.077,256.651 268.5,260C 268.018,261.008 267.852,262.175 268,263.5C 266.532,260.858 264.365,259.191 261.5,258.5C 258.401,251.954 254.568,245.954 250,240.5C 250.184,236.82 249.351,233.153 247.5,229.5C 247.709,228.914 248.043,228.414 248.5,228C 247.875,225.2 247.208,222.366 246.5,219.5C 245.098,219.135 244.098,218.301 243.5,217C 243.817,213.299 244.15,209.632 244.5,206C 243.219,204.591 242.219,203.091 241.5,201.5C 241.67,200.178 241.337,199.011 240.5,198C 243.451,195.916 244.117,193.249 242.5,190C 246.122,183.877 248.789,177.71 250.5,171.5 Z"/></g>
<g><path style="opacity:1" fill="#f2eebe" d="M 270.5,183.5 C 277.527,188.527 283.527,194.527 288.5,201.5C 293.01,208.518 297.01,215.851 300.5,223.5C 324.775,219.736 346.775,225.069 366.5,239.5C 377.912,248.577 386.245,259.911 391.5,273.5C 388.56,271.437 386.394,272.437 385,276.5C 384.193,272.551 383.693,272.551 383.5,276.5C 379.296,278.455 374.629,280.955 369.5,284C 352.832,287.333 336.165,287.333 319.5,284C 315.317,281.743 310.984,279.743 306.5,278C 307.167,277.667 307.833,277.333 308.5,277C 301.95,274.092 295.95,270.426 290.5,266C 282.731,257.502 275.397,248.669 268.5,239.5C 268.833,238.833 269.167,238.167 269.5,237.5C 267.872,234.117 266.539,230.617 265.5,227C 266.462,222.366 266.462,217.7 265.5,213C 266,207.5 266.5,202 267,196.5C 268.777,192.294 269.944,187.961 270.5,183.5 Z"/></g>
<g><path style="opacity:1" fill="#d9e6f6" d="M 249.5,251.5 C 250.363,252.94 250.363,254.274 249.5,255.5C 251.734,257.381 253.067,259.715 253.5,262.5C 252.341,260.369 250.508,259.036 248,258.5C 247.517,257.552 247.351,256.552 247.5,255.5C 245.156,254.514 242.989,253.181 241,251.5C 238.359,253.06 236.026,252.727 234,250.5C 233.055,250.905 232.388,251.572 232,252.5C 224.197,251.818 216.364,251.152 208.5,250.5C 207.672,251.415 206.672,252.081 205.5,252.5C 199.054,252.384 192.554,251.718 186,250.5C 175.655,251.142 165.322,251.809 155,252.5C 149.174,251.189 143.34,251.189 137.5,252.5C 133.805,251.914 130.138,251.247 126.5,250.5C 125.914,250.709 125.414,251.043 125,251.5C 124.505,249.527 124.338,247.527 124.5,245.5C 124.126,239.463 125.126,233.797 127.5,228.5C 127.351,229.552 127.517,230.552 128,231.5C 129.012,229.136 130.345,227.802 132,227.5C 132.221,230.943 133.221,231.276 135,228.5C 144.576,229.661 154.243,230.328 164,230.5C 187.867,230.192 211.7,229.859 235.5,229.5C 237.063,230.945 238.396,232.611 239.5,234.5C 238.559,234.489 237.892,234.989 237.5,236C 239.573,237.662 240.906,239.329 241.5,241C 240.044,241.423 239.544,242.256 240,243.5C 243.382,246.061 246.549,248.727 249.5,251.5 Z"/></g>
<g><path style="opacity:1" fill="#f9df4d" d="M 431.5,241.5 C 430.545,243.746 429.878,246.079 429.5,248.5C 422.19,264.481 411.523,277.815 397.5,288.5C 397.167,288.5 396.833,288.5 396.5,288.5C 395.89,287.609 395.557,286.609 395.5,285.5C 395.606,282.921 394.939,280.588 393.5,278.5C 393.598,276.447 392.931,274.78 391.5,273.5C 386.245,259.911 377.912,248.577 366.5,239.5C 367.839,237.494 369.506,235.827 371.5,234.5C 373.088,235.01 374.255,236.01 375,237.5C 375.483,236.552 375.649,235.552 375.5,234.5C 379.24,234.759 382.906,234.426 386.5,233.5C 389.039,234.115 391.539,234.782 394,235.5C 395.444,233.845 397.278,233.178 399.5,233.5C 399.202,236.336 399.869,236.836 401.5,235C 405.661,233.826 406.995,235.159 405.5,239C 408.833,239.667 412.167,239.667 415.5,239C 414.5,238.167 413.5,237.333 412.5,236.5C 412.833,235.5 413.5,234.833 414.5,234.5C 416.249,236.531 418.249,236.865 420.5,235.5C 424.672,236.694 428.338,238.694 431.5,241.5 Z"/></g>
<g><path style="opacity:1" fill="#eaeac4" d="M 269.5,182.5 C 269.833,182.5 270.167,182.5 270.5,182.5C 270.5,182.833 270.5,183.167 270.5,183.5C 269.944,187.961 268.777,192.294 267,196.5C 266.5,202 266,207.5 265.5,213C 266.462,217.7 266.462,222.366 265.5,227C 266.539,230.617 267.872,234.117 269.5,237.5C 269.167,238.167 268.833,238.833 268.5,239.5C 275.397,248.669 282.731,257.502 290.5,266C 295.95,270.426 301.95,274.092 308.5,277C 307.833,277.333 307.167,277.667 306.5,278C 310.984,279.743 315.317,281.743 319.5,284C 336.165,287.333 352.832,287.333 369.5,284C 374.629,280.955 379.296,278.455 383.5,276.5C 383.693,272.551 384.193,272.551 385,276.5C 386.394,272.437 388.56,271.437 391.5,273.5C 392.931,274.78 393.598,276.447 393.5,278.5C 392.839,279.718 392.172,281.051 391.5,282.5C 390.914,282.291 390.414,281.957 390,281.5C 389.333,282.833 388.333,283.833 387,284.5C 385.951,283.483 384.784,283.316 383.5,284C 377.925,287.455 371.925,289.788 365.5,291C 366.696,291.654 366.696,292.154 365.5,292.5C 358.291,292.785 350.791,292.452 343,291.5C 340.5,291.667 338,291.833 335.5,292C 336.5,292.333 337.5,292.667 338.5,293C 332.436,292.872 326.436,292.039 320.5,290.5C 319.914,290.709 319.414,291.043 319,291.5C 309.956,287.396 301.456,282.396 293.5,276.5C 289.557,272.042 285.057,267.376 280,262.5C 279.918,259.252 278.418,256.919 275.5,255.5C 273.304,249.092 269.637,243.759 264.5,239.5C 263.462,234.89 262.129,230.39 260.5,226C 261.345,221.182 261.012,216.349 259.5,211.5C 260.924,206.264 261.757,200.931 262,195.5C 264.05,191.357 265.716,187.024 267,182.5C 267.977,183.774 268.811,183.774 269.5,182.5 Z"/></g>
<g><path style="opacity:1" fill="#cddff4" d="M 124.5,245.5 C 124.338,247.527 124.505,249.527 125,251.5C 125.414,251.043 125.914,250.709 126.5,250.5C 130.138,251.247 133.805,251.914 137.5,252.5C 143.34,251.189 149.174,251.189 155,252.5C 165.322,251.809 175.655,251.142 186,250.5C 192.554,251.718 199.054,252.384 205.5,252.5C 206.672,252.081 207.672,251.415 208.5,250.5C 216.364,251.152 224.197,251.818 232,252.5C 232.388,251.572 233.055,250.905 234,250.5C 236.026,252.727 238.359,253.06 241,251.5C 242.989,253.181 245.156,254.514 247.5,255.5C 247.351,256.552 247.517,257.552 248,258.5C 250.508,259.036 252.341,260.369 253.5,262.5C 256.487,266.505 258.487,270.672 259.5,275C 258.833,275.333 258.167,275.667 257.5,276C 259.996,277.331 261.996,279.164 263.5,281.5C 259.533,281.734 256.2,280.4 253.5,277.5C 252.558,277.608 251.725,277.941 251,278.5C 248.316,277.163 245.649,275.83 243,274.5C 195.173,275.284 147.34,275.284 99.5,274.5C 97.6803,274.649 96.1803,275.316 95,276.5C 93.917,274.759 92.7503,274.093 91.5,274.5C 97.9899,266.009 105.99,259.343 115.5,254.5C 118.006,253.25 120.673,252.584 123.5,252.5C 123.198,249.941 123.532,247.607 124.5,245.5 Z"/></g>
<g><path style="opacity:1" fill="#227fd0" d="M 429.5,248.5 C 429.721,249.735 430.388,250.735 431.5,251.5C 458.158,252.5 484.825,252.833 511.5,252.5C 511.5,273.167 511.5,293.833 511.5,314.5C 473.927,314.17 436.427,314.504 399,315.5C 398.828,308.654 398.328,301.987 397.5,295.5C 397.5,293.167 397.5,290.833 397.5,288.5C 411.523,277.815 422.19,264.481 429.5,248.5 Z"/></g>
<g><path style="opacity:1" fill="#227fcf" d="M -0.5,252.5 C 38.1064,252.523 76.6064,252.523 115,252.5C 116.762,252.944 116.595,253.444 114.5,254C 114.728,254.399 115.062,254.565 115.5,254.5C 105.99,259.343 97.9899,266.009 91.5,274.5C 85.7198,280.383 81.7198,287.383 79.5,295.5C 77.9605,297.838 77.2938,300.505 77.5,303.5C 75.8643,307.21 75.1977,311.21 75.5,315.5C 74.7784,315.918 74.2784,316.584 74,317.5C 73.6667,316.167 73.3333,314.833 73,313.5C 72.6667,314.167 72.3333,314.833 72,315.5C 47.9081,314.506 23.7414,314.172 -0.5,314.5C -0.5,293.833 -0.5,273.167 -0.5,252.5 Z"/></g>
<g><path style="opacity:1" fill="#e5e8cd" d="M 261.5,177.5 C 264.475,178.655 267.142,180.322 269.5,182.5C 268.811,183.774 267.977,183.774 267,182.5C 265.716,187.024 264.05,191.357 262,195.5C 261.757,200.931 260.924,206.264 259.5,211.5C 261.012,216.349 261.345,221.182 260.5,226C 262.129,230.39 263.462,234.89 264.5,239.5C 269.637,243.759 273.304,249.092 275.5,255.5C 278.418,256.919 279.918,259.252 280,262.5C 285.057,267.376 289.557,272.042 293.5,276.5C 301.456,282.396 309.956,287.396 319,291.5C 319.414,291.043 319.914,290.709 320.5,290.5C 326.436,292.039 332.436,292.872 338.5,293C 337.5,292.667 336.5,292.333 335.5,292C 338,291.833 340.5,291.667 343,291.5C 350.791,292.452 358.291,292.785 365.5,292.5C 366.696,292.154 366.696,291.654 365.5,291C 371.925,289.788 377.925,287.455 383.5,284C 384.784,283.316 385.951,283.483 387,284.5C 388.333,283.833 389.333,282.833 390,281.5C 390.414,281.957 390.914,282.291 391.5,282.5C 392.172,281.051 392.839,279.718 393.5,278.5C 394.939,280.588 395.606,282.921 395.5,285.5C 376.318,297.77 355.318,301.936 332.5,298C 323.556,296.764 314.889,294.597 306.5,291.5C 306.719,290.325 306.386,289.325 305.5,288.5C 297.092,283.635 288.758,278.801 280.5,274C 272.805,265.956 266.972,257.123 263,247.5C 262.184,246.177 261.017,245.511 259.5,245.5C 258.273,241.875 257.106,238.208 256,234.5C 252.866,214.591 254.699,195.591 261.5,177.5 Z"/></g>
<g><path style="opacity:1" fill="#c0d8f1" d="M 91.5,274.5 C 92.7503,274.093 93.917,274.759 95,276.5C 96.1803,275.316 97.6803,274.649 99.5,274.5C 147.34,275.284 195.173,275.284 243,274.5C 245.649,275.83 248.316,277.163 251,278.5C 251.725,277.941 252.558,277.608 253.5,277.5C 256.2,280.4 259.533,281.734 263.5,281.5C 263.511,283.017 264.177,284.184 265.5,285C 272.567,287.712 278.9,291.712 284.5,297C 287.939,298.09 291.273,299.256 294.5,300.5C 294.137,302.911 295.137,304.411 297.5,305C 303.673,305.836 309.506,307.669 315,310.5C 316.84,309.167 317.34,309.334 316.5,311C 325.994,312.995 335.494,314.495 345,315.5C 351.594,315.219 358.094,314.385 364.5,313C 366.129,312.415 367.629,311.581 369,310.5C 370.876,312.123 372.21,311.79 373,309.5C 374.808,309.888 376.475,309.888 378,309.5C 381.795,306.195 386.295,304.695 391.5,305C 392.876,302.457 394.043,302.291 395,304.5C 395.333,303.5 395.667,302.5 396,301.5C 396.278,302.416 396.778,303.082 397.5,303.5C 397.5,305.167 397.5,306.833 397.5,308.5C 397.167,308.5 396.833,308.5 396.5,308.5C 396.265,307.903 395.765,307.57 395,307.5C 391.847,308.563 388.68,309.563 385.5,310.5C 386.729,311.281 388.062,311.781 389.5,312C 385.039,314.226 380.373,314.893 375.5,314C 378.063,314.763 378.063,315.263 375.5,315.5C 372.918,313.943 370.751,314.277 369,316.5C 366.482,315.209 364.149,315.542 362,317.5C 361.228,317.355 360.561,317.022 360,316.5C 357.43,317.416 354.763,318.082 352,318.5C 348,317.167 344,317.167 340,318.5C 333.962,318.231 328.129,317.231 322.5,315.5C 321.833,315.833 321.167,316.167 320.5,316.5C 318.266,314.318 315.766,313.985 313,315.5C 305.465,315.546 298.965,313.046 293.5,308C 287.868,306.789 282.534,304.789 277.5,302C 271.752,301.692 266.085,300.859 260.5,299.5C 202.724,300.322 144.891,300.656 87,300.5C 83.2745,297.376 80.6078,298.043 79,302.5C 78.9822,300.203 79.1489,297.869 79.5,295.5C 81.7198,287.383 85.7198,280.383 91.5,274.5 Z"/></g>
<g><path style="opacity:1" fill="#d2e0e0" d="M 241.5,201.5 C 242.219,203.091 243.219,204.591 244.5,206C 244.15,209.632 243.817,213.299 243.5,217C 244.098,218.301 245.098,219.135 246.5,219.5C 247.208,222.366 247.875,225.2 248.5,228C 248.043,228.414 247.709,228.914 247.5,229.5C 249.351,233.153 250.184,236.82 250,240.5C 254.568,245.954 258.401,251.954 261.5,258.5C 266.082,268.588 272.749,277.088 281.5,284C 291.724,288.886 301.724,294.219 311.5,300C 334.812,307.463 358.145,307.13 381.5,299C 386.315,294.949 391.315,292.116 396.5,290.5C 396.338,292.824 395.172,294.491 393,295.5C 391.334,294.66 391.167,295.16 392.5,297C 385.872,299.12 379.206,301.953 372.5,305.5C 371.914,305.291 371.414,304.957 371,304.5C 367.478,306.412 363.645,307.579 359.5,308C 347.914,309.625 336.247,309.292 324.5,307C 321.993,306.907 319.826,306.074 318,304.5C 317.586,304.957 317.086,305.291 316.5,305.5C 312.665,304.496 309.165,302.829 306,300.5C 305.667,300.833 305.333,301.167 305,301.5C 290.046,292.799 276.213,282.799 263.5,271.5C 263.709,270.914 264.043,270.414 264.5,270C 260.092,266.428 257.092,261.928 255.5,256.5C 253.773,254.433 251.773,252.767 249.5,251.5C 247.979,247.343 247.146,243.01 247,238.5C 243.347,235.282 242.847,231.782 245.5,228C 244.446,225.618 243.779,223.118 243.5,220.5C 239.932,220.241 238.599,218.241 239.5,214.5C 239.703,212.61 239.037,211.11 237.5,210C 240.649,208.067 241.982,205.234 241.5,201.5 Z"/></g>
<g><path style="opacity:1" fill="#b9d5f0" d="M 79.5,295.5 C 79.1489,297.869 78.9822,300.203 79,302.5C 80.6078,298.043 83.2745,297.376 87,300.5C 144.891,300.656 202.724,300.322 260.5,299.5C 266.085,300.859 271.752,301.692 277.5,302C 282.534,304.789 287.868,306.789 293.5,308C 298.965,313.046 305.465,315.546 313,315.5C 315.766,313.985 318.266,314.318 320.5,316.5C 321.167,316.167 321.833,315.833 322.5,315.5C 328.129,317.231 333.962,318.231 340,318.5C 344,317.167 348,317.167 352,318.5C 354.763,318.082 357.43,317.416 360,316.5C 360.561,317.022 361.228,317.355 362,317.5C 364.149,315.542 366.482,315.209 369,316.5C 370.751,314.277 372.918,313.943 375.5,315.5C 378.063,315.263 378.063,314.763 375.5,314C 380.373,314.893 385.039,314.226 389.5,312C 388.062,311.781 386.729,311.281 385.5,310.5C 388.68,309.563 391.847,308.563 395,307.5C 395.765,307.57 396.265,307.903 396.5,308.5C 394.386,309.784 393.386,311.784 393.5,314.5C 375.841,319.291 357.841,321.958 339.5,322.5C 325.759,321.023 312.259,318.356 299,314.5C 297.538,314.994 296.038,315.327 294.5,315.5C 286.849,314.535 279.183,313.702 271.5,313C 274.226,312.818 276.893,312.318 279.5,311.5C 277.754,310.605 275.92,309.938 274,309.5C 209.742,309.803 144.742,310.137 79,310.5C 77.7978,308.323 77.2978,305.989 77.5,303.5C 77.2938,300.505 77.9605,297.838 79.5,295.5 Z"/></g>
<g><path style="opacity:1" fill="#d6e2d6" d="M 259.5,245.5 C 261.017,245.511 262.184,246.177 263,247.5C 266.972,257.123 272.805,265.956 280.5,274C 288.758,278.801 297.092,283.635 305.5,288.5C 306.386,289.325 306.719,290.325 306.5,291.5C 314.889,294.597 323.556,296.764 332.5,298C 355.318,301.936 376.318,297.77 395.5,285.5C 395.557,286.609 395.89,287.609 396.5,288.5C 396.5,289.167 396.5,289.833 396.5,290.5C 391.315,292.116 386.315,294.949 381.5,299C 358.145,307.13 334.812,307.463 311.5,300C 301.724,294.219 291.724,288.886 281.5,284C 272.749,277.088 266.082,268.588 261.5,258.5C 264.365,259.191 266.532,260.858 268,263.5C 267.852,262.175 268.018,261.008 268.5,260C 263.077,256.651 260.077,251.817 259.5,245.5 Z"/></g>
<g><path style="opacity:1" fill="#c4dae5" d="M 249.5,251.5 C 251.773,252.767 253.773,254.433 255.5,256.5C 257.092,261.928 260.092,266.428 264.5,270C 264.043,270.414 263.709,270.914 263.5,271.5C 276.213,282.799 290.046,292.799 305,301.5C 305.333,301.167 305.667,300.833 306,300.5C 309.165,302.829 312.665,304.496 316.5,305.5C 317.086,305.291 317.586,304.957 318,304.5C 319.826,306.074 321.993,306.907 324.5,307C 336.247,309.292 347.914,309.625 359.5,308C 363.645,307.579 367.478,306.412 371,304.5C 371.414,304.957 371.914,305.291 372.5,305.5C 379.206,301.953 385.872,299.12 392.5,297C 391.167,295.16 391.334,294.66 393,295.5C 395.172,294.491 396.338,292.824 396.5,290.5C 396.5,289.833 396.5,289.167 396.5,288.5C 396.833,288.5 397.167,288.5 397.5,288.5C 397.5,290.833 397.5,293.167 397.5,295.5C 397.5,298.167 397.5,300.833 397.5,303.5C 396.778,303.082 396.278,302.416 396,301.5C 395.667,302.5 395.333,303.5 395,304.5C 394.043,302.291 392.876,302.457 391.5,305C 386.295,304.695 381.795,306.195 378,309.5C 376.475,309.888 374.808,309.888 373,309.5C 372.21,311.79 370.876,312.123 369,310.5C 367.629,311.581 366.129,312.415 364.5,313C 358.094,314.385 351.594,315.219 345,315.5C 335.494,314.495 325.994,312.995 316.5,311C 317.34,309.334 316.84,309.167 315,310.5C 309.506,307.669 303.673,305.836 297.5,305C 295.137,304.411 294.137,302.911 294.5,300.5C 291.273,299.256 287.939,298.09 284.5,297C 278.9,291.712 272.567,287.712 265.5,285C 264.177,284.184 263.511,283.017 263.5,281.5C 261.996,279.164 259.996,277.331 257.5,276C 258.167,275.667 258.833,275.333 259.5,275C 258.487,270.672 256.487,266.505 253.5,262.5C 253.067,259.715 251.734,257.381 249.5,255.5C 250.363,254.274 250.363,252.94 249.5,251.5 Z"/></g>
<g><path style="opacity:1" fill="#b2d1ef" d="M 77.5,303.5 C 77.2978,305.989 77.7978,308.323 79,310.5C 144.742,310.137 209.742,309.803 274,309.5C 275.92,309.938 277.754,310.605 279.5,311.5C 276.893,312.318 274.226,312.818 271.5,313C 279.183,313.702 286.849,314.535 294.5,315.5C 296.038,315.327 297.538,314.994 299,314.5C 312.259,318.356 325.759,321.023 339.5,322.5C 357.841,321.958 375.841,319.291 393.5,314.5C 393.386,311.784 394.386,309.784 396.5,308.5C 396.833,308.5 397.167,308.5 397.5,308.5C 397.322,316.054 395.989,323.387 393.5,330.5C 391.954,329.364 390.121,328.698 388,328.5C 374.508,328.454 361.008,329.121 347.5,330.5C 338.143,330.164 328.81,329.497 319.5,328.5C 240.676,328.934 162.009,328.934 83.5,328.5C 80.0809,327.943 78.0809,329.276 77.5,332.5C 76.29,326.904 75.6233,321.238 75.5,315.5C 75.1977,311.21 75.8643,307.21 77.5,303.5 Z"/></g>
<g><path style="opacity:1" fill="#abcfef" d="M 393.5,330.5 C 391.634,336.564 388.967,342.231 385.5,347.5C 382.215,346.911 381.882,345.744 384.5,344C 384.167,343.667 383.833,343.333 383.5,343C 352.821,342.803 322.154,342.303 291.5,341.5C 222.999,341.535 154.499,342.202 86,343.5C 85,342.833 84,342.167 83,341.5C 83.4759,343.32 83.3093,344.987 82.5,346.5C 80.2225,342.06 78.5559,337.393 77.5,332.5C 78.0809,329.276 80.0809,327.943 83.5,328.5C 162.009,328.934 240.676,328.934 319.5,328.5C 328.81,329.497 338.143,330.164 347.5,330.5C 361.008,329.121 374.508,328.454 388,328.5C 390.121,328.698 391.954,329.364 393.5,330.5 Z"/></g>
<g><path style="opacity:1" fill="#2687d6" d="M 397.5,295.5 C 398.328,301.987 398.828,308.654 399,315.5C 436.427,314.504 473.927,314.17 511.5,314.5C 511.5,327.167 511.5,339.833 511.5,352.5C 469.499,352.333 427.499,352.5 385.5,353C 384.069,353.465 382.903,354.299 382,355.5C 381.601,355.272 381.435,354.938 381.5,354.5C 382.806,352.184 384.139,349.85 385.5,347.5C 388.967,342.231 391.634,336.564 393.5,330.5C 395.989,323.387 397.322,316.054 397.5,308.5C 397.5,306.833 397.5,305.167 397.5,303.5C 397.5,300.833 397.5,298.167 397.5,295.5 Z"/></g>
<g><path style="opacity:1" fill="#a5ccef" d="M 385.5,347.5 C 384.139,349.85 382.806,352.184 381.5,354.5C 378.939,356.64 376.605,358.973 374.5,361.5C 372.956,361.297 371.622,360.63 370.5,359.5C 369.692,359.808 369.025,360.308 368.5,361C 324.155,361.187 279.821,361.687 235.5,362.5C 191.274,361.852 147.108,361.185 103,360.5C 102.383,361.449 102.549,362.282 103.5,363C 102.5,363.667 101.5,363.667 100.5,363C 101.888,362.111 101.722,361.611 100,361.5C 99.0546,361.905 98.3879,362.572 98,363.5C 97.2515,361.668 96.2515,360.001 95,358.5C 94.5776,360.426 93.4109,361.426 91.5,361.5C 87.734,356.97 84.734,351.97 82.5,346.5C 83.3093,344.987 83.4759,343.32 83,341.5C 84,342.167 85,342.833 86,343.5C 154.499,342.202 222.999,341.535 291.5,341.5C 322.154,342.303 352.821,342.803 383.5,343C 383.833,343.333 384.167,343.667 384.5,344C 381.882,345.744 382.215,346.911 385.5,347.5 Z"/></g>
<g><path style="opacity:1" fill="#2789d8" d="M 75.5,315.5 C 75.6233,321.238 76.29,326.904 77.5,332.5C 78.5559,337.393 80.2225,342.06 82.5,346.5C 84.734,351.97 87.734,356.97 91.5,361.5C 94.1667,364.5 96.8333,367.5 99.5,370.5C 98.3473,371.313 98.3473,372.313 99.5,373.5C 98.635,374.583 97.635,374.749 96.5,374C 96.8333,373.667 97.1667,373.333 97.5,373C 96.8095,371.933 96.3095,370.766 96,369.5C 64.0566,371.488 31.8899,372.155 -0.5,371.5C -0.5,352.5 -0.5,333.5 -0.5,314.5C 23.7414,314.172 47.9081,314.506 72,315.5C 72.3333,314.833 72.6667,314.167 73,313.5C 73.3333,314.833 73.6667,316.167 74,317.5C 74.2784,316.584 74.7784,315.918 75.5,315.5 Z"/></g>
<g><path style="opacity:1" fill="#9dc9ee" d="M 374.5,361.5 C 363.336,373.424 349.669,381.257 333.5,385C 328.857,385.83 324.19,386.497 319.5,387C 258.833,387.667 198.167,387.667 137.5,387C 123.277,384.878 110.61,379.378 99.5,370.5C 96.8333,367.5 94.1667,364.5 91.5,361.5C 93.4109,361.426 94.5776,360.426 95,358.5C 96.2515,360.001 97.2515,361.668 98,363.5C 98.3879,362.572 99.0546,361.905 100,361.5C 101.722,361.611 101.888,362.111 100.5,363C 101.5,363.667 102.5,363.667 103.5,363C 102.549,362.282 102.383,361.449 103,360.5C 147.108,361.185 191.274,361.852 235.5,362.5C 279.821,361.687 324.155,361.187 368.5,361C 369.025,360.308 369.692,359.808 370.5,359.5C 371.622,360.63 372.956,361.297 374.5,361.5 Z"/></g>
<g><path style="opacity:1" fill="#2a8fdd" d="M 511.5,352.5 C 511.5,370.167 511.5,387.833 511.5,405.5C 340.833,405.5 170.167,405.5 -0.5,405.5C -0.5,394.167 -0.5,382.833 -0.5,371.5C 31.8899,372.155 64.0566,371.488 96,369.5C 96.3095,370.766 96.8095,371.933 97.5,373C 97.1667,373.333 96.8333,373.667 96.5,374C 97.635,374.749 98.635,374.583 99.5,373.5C 98.3473,372.313 98.3473,371.313 99.5,370.5C 110.61,379.378 123.277,384.878 137.5,387C 198.167,387.667 258.833,387.667 319.5,387C 324.19,386.497 328.857,385.83 333.5,385C 349.669,381.257 363.336,373.424 374.5,361.5C 376.605,358.973 378.939,356.64 381.5,354.5C 381.435,354.938 381.601,355.272 382,355.5C 382.903,354.299 384.069,353.465 385.5,353C 427.499,352.5 469.499,352.333 511.5,352.5 Z"/></g>
<g><path style="opacity:1" fill="#2d93e0" d="M -0.5,405.5 C 170.167,405.5 340.833,405.5 511.5,405.5C 511.5,413.833 511.5,422.167 511.5,430.5C 340.833,430.5 170.167,430.5 -0.5,430.5C -0.5,422.167 -0.5,413.833 -0.5,405.5 Z"/></g>
<g><path style="opacity:1" fill="#2e98e3" d="M -0.5,430.5 C 170.167,430.5 340.833,430.5 511.5,430.5C 511.5,445.167 511.5,459.833 511.5,474.5C 340.833,474.5 170.167,474.5 -0.5,474.5C -0.5,459.833 -0.5,445.167 -0.5,430.5 Z"/></g>
<g><path style="opacity:1" fill="#319fe8" d="M -0.5,474.5 C 170.167,474.5 340.833,474.5 511.5,474.5C 511.5,486.833 511.5,499.167 511.5,511.5C 340.833,511.5 170.167,511.5 -0.5,511.5C -0.5,499.167 -0.5,486.833 -0.5,474.5 Z"/></g>
</svg>
